<svg id="레이어_1" data-name="레이어 1" xmlns="http://www.w3.org/2000/svg" viewBox="0 0 175.34 114.9"><defs><style>.cls-1{fill:#0e5500;}.cls-2{fill:#0e7f00;}</style></defs><path class="cls-1" d="M81.63,33.65s2.82,23.63,1.13,30.94,5.58,48.93-.59,52.31S68.7,113,62,107.9,13.58,79.21,2.33,78.09c0,0,37.31,24.75,42.56,30.37s23.24,17.44,22.68,23.06-19.85,2.31-21.51,2.39-20,.85-22.5,2.39-9.84,9.42-9.84,9.42,12-5.5,14.2-5.69c3.16-.28,28.26,2.18,31.22,3s9.56,3.38,13.78,3.52S82.56,145,84.7,145.3s7.62,3.52,10.85,3.24,8.16.28,10.83-1.41,10.55-5.34,13.64-5.63,18.42-4.92,18.42-4.92-15.77-.84-17.15-.7-9.57,3.23-12.8.42,5.63-7.31,8.86-9.42,13.92-12.65,19.54-16.73,36.42-29.95,40.78-31.08c0,0-10.54.71-16.87,3.66s-8.44,3.8-18.7,11.25-19.55,15.18-23.91,17.29-9,8.16-13.21,7.17-3.94-1.68-5.07-3.37-3.37-15.61-3.37-15.61S95.48,80.07,95,76.82C94.72,75,91.62,61.64,90.77,59S81.63,33.65,81.63,33.65Z" transform="translate(-2.33 -33.65)"/><path class="cls-2" d="M75.88,91.1s8.85-3,11.6-3,4.85,8.23,5.9,11.39,6.75,21.09,6.33,24.68-1.69,7-5.69,8.44-13.93.63-15.82-1.27,0-6.12.84-11.39,1.9-8.44,1.48-12.23-.43-8.23-1.9-10.34S75.67,94.07,75.88,91.1Z" transform="translate(-2.33 -33.65)"/></svg>